:FULLY-SPECIFIED
:FORCE-ALL-JOINTS-BE-3DOF
:DEGREES
1020
root -0.280563 15.0023 -31.9441 360.312 -3.53015 360.311
lfemur -18.0857 8.7812 -8.72608
ltibia 53.8512 0 0
lfoot -16.8189 19.2158 0
ltoes -17.4414 0 0
rfemur -40.8297 -11.1974 4.49037
rtibia 46.8523 0 0
rfoot 11.4908 -3.73648 0
rtoes 2.0511 0 0
lowerback 13.7971 1.41609 -5.13473
upperback -0.810732 1.22376 2.07666
thorax -8.50136 0.860182 4.89046
lowerneck -2.52161 -1.02903 -5.50163
upperneck 7.70432 -1.43277 2.55233
head 3.48768 -0.798501 1.57096
lclavicle 2.36615e-17 -1.03475e-14 0
lhumerus -16.4748 -41.4381 91.8241
lradius 92.6362 0 0
lwrist 6.35619 0 0
lhand -30.4194 36.0459 0
lfingers 7.12502 0 0
lthumb -3.72242 78.9371 0
rclavicle 2.36615e-17 -1.03475e-14 0
rhumerus -14.5502 23.8885 -75.2839
rradius 108.62 0 0
rwrist -41.7084 0 0
rhand 1.89553 -25.1824 0
rfingers 7.12502 0 0
rthumb 27.3914 -53.0786 0
1021
root -0.269882 15.0028 -31.8945 360.268 -3.21889 360.341
lfemur -17.9847 8.7017 -8.85293
ltibia 53.9334 0 0
lfoot -17.0072 19.2729 0
ltoes -17.4745 0 0
rfemur -40.9854 -11.1382 4.46694
rtibia 46.7313 0 0
rfoot 11.7346 -3.57153 0
rtoes 2.18705 0 0
lowerback 13.7923 1.39742 -5.17852
upperback -0.807722 1.19209 2.08221
thorax -8.49462 0.847113 4.92846
lowerneck -2.50459 -1.10165 -5.5586
upperneck 7.71333 -1.53119 2.60181
head 3.48813 -0.847247 1.59125
lclavicle 7.20529e-16 -1.02353e-14 0
lhumerus -16.5299 -41.7099 92.0234
lradius 92.879 0 0
lwrist 6.63311 0 0
lhand -30.3885 36.0687 0
lfingers 7.12502 0 0
lthumb -3.69253 79.0019 0
rclavicle 7.20529e-16 -1.02353e-14 0
rhumerus -14.1948 23.9278 -75.198
rradius 108.546 0 0
rwrist -41.3227 0 0
rhand 1.96637 -25.2464 0
rfingers 7.12502 0 0
rthumb 27.4593 -53.1334 0
1022
root -0.259232 15.0033 -31.8449 360.225 -2.90841 360.372
lfemur -17.8845 8.62241 -8.97956
ltibia 54.0156 0 0
lfoot -17.195 19.3298 0
ltoes -17.5076 0 0
rfemur -41.1404 -11.0791 4.44381
rtibia 46.6108 0 0
rfoot 11.9773 -3.40722 0
rtoes 2.32247 0 0
lowerback 13.7876 1.3788 -5.22214
upperback -0.804744 1.16053 2.08776
thorax -8.48794 0.834088 4.96634
lowerneck -2.48763 -1.17412 -5.61544
upperneck 7.72227 -1.62939 2.65119
head 3.48856 -0.895881 1.6115
lclavicle 1.41561e-15 -1.01233e-14 0
lhumerus -16.5843 -41.9809 92.2221
lradius 93.1212 0 0
lwrist 6.90982 0 0
lhand -30.3577 36.0917 0
lfingers 7.12502 0 0
lthumb -3.66279 79.0651 0
rclavicle 1.41561e-15 -1.01233e-14 0
rhumerus -13.8401 23.9672 -75.1124
rradius 108.472 0 0
rwrist -40.938 0 0
rhand 2.03691 -25.3103 0
rfingers 7.12502 0 0
rthumb 27.5269 -53.1879 0
1023
root -0.248615 15.0038 -31.7952 360.182 -2.59874 360.403
lfemur -17.7849 8.54334 -9.10596
ltibia 54.0978 0 0
lfoot -17.3823 19.3864 0
ltoes -17.5408 0 0
rfemur -41.2948 -11.0201 4.42099
rtibia 46.4907 0 0
rfoot 12.2189 -3.24357 0
rtoes 2.45736 0 0
lowerback 13.7829 1.36024 -5.26558
upperback -0.801796 1.12908 2.09331
thorax -8.48131 0.821108 5.00409
lowerneck -2.47075 -1.24641 -5.67216
upperneck 7.73114 -1.72735 2.70047
head 3.48898 -0.944401 1.63171
lclavicle 2.10884e-15 -1.00113e-14 0
lhumerus -16.6381 -42.251 92.4203
lradius 93.3628 0 0
lwrist 7.1863 0 0
lhand -30.327 36.1148 0
lfingers 7.12502 0 0
lthumb -3.63321 79.1264 0
rclavicle 2.10884e-15 -1.00113e-14 0
rhumerus -13.4864 24.0066 -75.027
rradius 108.398 0 0
rwrist -40.5542 0 0
rhand 2.10715 -25.3738 0
rfingers 7.12502 0 0
rthumb 27.5942 -53.2422 0
1024
root -0.238031 15.0043 -31.7454 360.139 -2.2899 360.433
lfemur -17.686 8.46448 -9.23212
ltibia 54.1801 0 0
lfoot -17.569 19.4427 0
ltoes -17.5741 0 0
rfemur -41.4486 -10.9612 4.39849
rtibia 46.3711 0 0
rfoot 12.4593 -3.08059 0
rtoes 2.5917 0 0
lowerback 13.7782 1.34175 -5.30883
upperback -0.798881 1.09774 2.09886
thorax -8.47473 0.808173 5.04171
lowerneck -2.45393 -1.31854 -5.72874
upperneck 7.73993 -1.82508 2.74964
head 3.48938 -0.992802 1.65188
lclavicle 2.80016e-15 -9.89943e-15 0
lhumerus -16.6911 -42.5202 92.618
lradius 93.6037 0 0
lwrist 7.46255 0 0
lhand -30.2965 36.1382 0
lfingers 7.12502 0 0
lthumb -3.60378 79.1859 0
rclavicle 2.80016e-15 -9.89943e-15 0
rhumerus -13.1335 24.0462 -74.9419
rradius 108.325 0 0
rwrist -40.1714 0 0
rhand 2.17707 -25.4371 0
rfingers 7.12502 0 0
rthumb 27.6612 -53.2963 0
1025
root -0.227482 15.0048 -31.6955 360.097 -1.98192 360.464
lfemur -17.5879 8.38584 -9.35805
ltibia 54.2624 0 0
lfoot -17.7551 19.4987 0
ltoes -17.6074 0 0
rfemur -41.6018 -10.9024 4.3763
rtibia 46.252 0 0
rfoot 12.6986 -2.91829 0
rtoes 2.72548 0 0
lowerback 13.7736 1.32331 -5.35189
upperback -0.795998 1.06652 2.10441
thorax -8.46822 0.795285 5.0792
lowerneck -2.43719 -1.39049 -5.78519
upperneck 7.74865 -1.92256 2.7987
head 3.48977 -1.04108 1.672
lclavicle 3.48952e-15 -9.78769e-15 0
lhumerus -16.7434 -42.7885 92.815
lradius 93.8441 0 0
lwrist 7.73854 0 0
lhand -30.2662 36.1616 0
lfingers 7.12502 0 0
lthumb -3.57452 79.2436 0
rclavicle 3.48952e-15 -9.78769e-15 0
rhumerus -12.7816 24.0858 -74.8571
rradius 108.252 0 0
rwrist -39.7897 0 0
rhand 2.24667 -25.5002 0
rfingers 7.12502 0 0
rthumb 27.7279 -53.3502 0
